<?xml version="1.0" encoding="iso-8859-1"?>
<!-- Generator: Adobe Illustrator 19.0.0, SVG Export Plug-In . SVG Version: 6.00 Build 0)  -->
<svg version="1.1" id="Capa_1" xmlns="http://www.w3.org/2000/svg" xmlns:xlink="http://www.w3.org/1999/xlink" x="0px" y="0px"
	 viewBox="0 0 512 512" style="enable-background:new 0 0 512 512;" xml:space="preserve">
<path style="fill:#FFB655;" d="M303.085,437.496h-28.12v-34.924h-42.928v56.939c0,11.549,9.363,20.912,20.912,20.912h50.136
	c11.854,0,21.464-9.609,21.464-21.464C324.548,447.106,314.939,437.496,303.085,437.496z"/>
<path style="opacity:0.1;enable-background:new    ;" d="M303.085,437.496h-28.12v-34.924h-42.928v56.939
	c0,11.549,9.363,20.912,20.912,20.912h50.136c11.854,0,21.464-9.609,21.464-21.464C324.548,447.106,314.939,437.496,303.085,437.496
	z"/>
<path style="fill:#FBDD56;" d="M308.287,31.577c-69.472,0.24-125.256,57.592-125.256,127.065l0,0c0,22.081-17.9,39.98-39.981,39.98
	H94.506c-24.9,0-49.148-7.961-69.202-22.721l0,0C14.814,168.18,0,175.671,0,188.696v54.408c0,88.072,71.396,159.468,159.468,159.468
	h115.496c88.072,0,159.468-71.396,159.468-159.468v-85.827C434.433,87.706,377.914,31.336,308.287,31.577z"/>
<path style="opacity:0.05;enable-background:new    ;" d="M151.197,197.79c-2.63,0.545-5.355,0.833-8.147,0.833H94.506
	c-24.9,0-49.148-7.962-69.202-22.721l0,0C14.814,168.18,0,175.671,0,188.696v54.408c0,88.072,71.396,159.468,159.468,159.468
	h109.217C143.928,376.426,119.373,246.562,151.197,197.79z"/>
<path style="fill:#FFB655;" d="M512,180.543c0,21.909-40.334,39.669-90.088,39.669s-90.088-10.29-90.088-39.669
	s40.334-39.669,90.088-39.669C471.666,140.873,512,158.634,512,180.543z"/>
<path style="opacity:0.1;enable-background:new    ;" d="M348.85,154.096c-10.71,6.192-17.026,14.824-17.026,26.446
	c0,29.379,40.334,39.669,90.088,39.669c36.7,0,68.27-9.664,82.312-23.527C398.979,223.741,344.954,177.248,348.85,154.096z"/>
<ellipse style="fill:#FFA6BB;" cx="278.67" cy="151.33" rx="27.922" ry="22.24"/>
<path style="fill:#414B58;" d="M317.911,135.299c-4.142,0-7.5-3.357-7.5-7.5c0-6.684-5.438-12.122-12.122-12.122
	c-6.684,0-12.122,5.438-12.122,12.122c0,4.143-3.358,7.5-7.5,7.5s-7.5-3.357-7.5-7.5c0-14.955,12.167-27.122,27.122-27.122
	c14.956,0,27.122,12.167,27.122,27.122C325.411,131.941,322.053,135.299,317.911,135.299z"/>
<g>
	<path style="fill:#FFB655;" d="M218.473,340.705L218.473,340.705c-48.933,17.046-102.419-8.803-119.465-57.736l-0.635-1.823
		c-2.435-6.991,3.755-13.937,10.979-12.32l0,0c9.231,2.067,18.856,1.513,27.79-1.599l49.703-17.314
		c25.071-8.734,52.476,4.511,61.21,29.582l0,0C256.789,304.567,243.544,331.972,218.473,340.705z"/>
	<path style="fill:#FFB655;" d="M230.516,437.496h-28.12v-34.924h-42.927v56.939c0,11.549,9.363,20.912,20.912,20.912h50.136
		c11.854,0,21.464-9.609,21.464-21.464C251.98,447.106,242.37,437.496,230.516,437.496z"/>
</g>
<path style="opacity:0.1;enable-background:new    ;" d="M141.069,265.86l-3.927,1.368c-8.933,3.112-18.558,3.666-27.79,1.599
	c-7.224-1.617-13.415,5.329-10.979,12.32l0.635,1.823c15.576,44.712,61.576,70.143,106.727,61.195
	C139.193,340.763,134.659,279.446,141.069,265.86z"/>
<g>
</g>
<g>
</g>
<g>
</g>
<g>
</g>
<g>
</g>
<g>
</g>
<g>
</g>
<g>
</g>
<g>
</g>
<g>
</g>
<g>
</g>
<g>
</g>
<g>
</g>
<g>
</g>
<g>
</g>
</svg>
