<?xml version="1.0" encoding="iso-8859-1"?>
<!-- Generator: Adobe Illustrator 19.0.0, SVG Export Plug-In . SVG Version: 6.00 Build 0)  -->
<svg version="1.1" id="Capa_1" xmlns="http://www.w3.org/2000/svg" xmlns:xlink="http://www.w3.org/1999/xlink" x="0px" y="0px"
	 viewBox="0 0 512 512" style="enable-background:new 0 0 512 512;" xml:space="preserve">
<g>
	<g>
		<g>
			<path d="M481.909,148.662c-13.157-5.794-29.492-9.622-47.183-11.156C423.898,76.099,370.168,30.652,307.183,30.652
				c-0.147,0-0.306,0.001-0.454,0.001c-71.165,0.245-129.061,58.94-129.061,130.842c0,17.264-14.045,31.31-31.309,31.31H99.238
				c-22.73,0-44.421-7.122-62.729-20.596c-7.002-5.153-16.171-5.919-23.93-1.995C4.82,174.137,0,181.975,0,190.668v52.814
				c0,86.976,68.774,158.183,154.796,162.116v47.951c0,15.328,12.471,27.799,27.799,27.799h48.667c3.889,0,7.597-0.789,10.974-2.213
				c3.41,1.447,7.074,2.213,10.801,2.213h48.667c15.624,0,28.335-12.711,28.335-28.335c0-15.624-12.711-28.335-28.335-28.335
				h-19.796v-19.074c33.604-1.506,65.254-13.13,91.95-33.857c3.271-2.54,3.865-7.252,1.324-10.523
				c-2.539-3.272-7.25-3.865-10.523-1.324c-26.018,20.2-57.226,30.878-90.25,30.878H162.296C81.077,390.779,15,324.702,15,243.483
				v-52.814c0-3.05,1.625-5.692,4.347-7.069c2.721-1.376,5.813-1.119,8.27,0.689c20.903,15.384,45.668,23.516,71.621,23.516h47.122
				c25.535,0,46.309-20.774,46.309-46.31c0-63.658,51.191-115.625,114.113-115.842c0.134-0.001,0.268-0.001,0.401-0.001
				c54.538,0,101.229,38.539,112.126,91.119c-0.753-0.008-1.502-0.024-2.257-0.024c-78.476,0-94.949,25.02-94.949,46.008
				c0,20.988,16.473,46.007,94.949,46.007c1.557,0,3.109-0.018,4.654-0.053v14.774c0,32.31-10.263,62.976-29.678,88.683
				c-2.497,3.306-1.841,8.009,1.465,10.505c1.353,1.023,2.94,1.516,4.514,1.516c2.271,0,4.516-1.027,5.991-2.979
				c21.398-28.332,32.708-62.124,32.708-97.724v-15.671c16.926-1.642,32.54-5.388,45.204-10.965
				c19.403-8.545,30.09-20.653,30.09-34.093S501.313,157.206,481.909,148.662z M240.239,405.779L240.239,405.779h26.67v26.4
				c0,4.143,3.358,7.5,7.5,7.5h27.296c7.353,0,13.335,5.982,13.335,13.335c0,7.353-5.982,13.335-13.335,13.335h-45.45
				c2.131-3.977,3.343-8.516,3.343-13.335c0-12.487-8.123-23.105-19.359-26.869V405.779z M211.466,405.779h13.772v18.9h-13.772
				V405.779z M169.796,405.779h26.67v26.4c0,4.143,3.358,7.5,7.5,7.5h27.296c0.237,0,0.469,0.023,0.704,0.036
				c0.218,0.022,0.439,0.031,0.662,0.034c6.714,0.686,11.969,6.374,11.969,13.265c0,7.353-5.982,13.335-13.335,13.335h-48.667
				c-7.058,0-12.799-5.741-12.799-12.799V405.779z M475.864,203.118c-15.586,6.863-36.472,10.643-58.813,10.643
				c-24.928,0-45.382-2.788-59.153-8.063c-20.796-7.966-20.796-19.239-20.796-22.943c0-3.705,0-14.979,20.796-22.944
				c13.77-5.275,34.225-8.064,59.152-8.064c22.341,0,43.227,3.779,58.813,10.643c13.234,5.828,21.136,13.44,21.136,20.365
				C497,189.678,489.099,197.292,475.864,203.118z"/>
			<path d="M112.011,275.772c5.14,1.15,10.411,1.585,15.666,1.276c4.135-0.238,7.294-3.784,7.056-7.919
				c-0.238-4.135-3.781-7.288-7.919-7.056c-3.867,0.22-7.745-0.094-11.525-0.939c-5.902-1.322-12.062,0.661-16.082,5.174
				c-4.022,4.513-5.285,10.862-3.297,16.57l0.617,1.77c14.156,40.636,52.387,66.156,93.174,66.152
				c10.732-0.001,21.648-1.768,32.341-5.493c13.662-4.76,24.653-14.555,30.949-27.58c6.295-13.026,7.141-27.724,2.382-41.386
				c-9.825-28.203-40.764-43.154-68.966-33.332l-26.574,9.258c-3.912,1.363-5.978,5.639-4.615,9.551s5.641,5.981,9.55,4.614
				l26.574-9.257c20.392-7.103,42.763,3.708,49.867,24.1c3.441,9.879,2.83,20.507-1.722,29.925
				c-4.552,9.419-12.499,16.501-22.378,19.941c-43.518,15.162-91.255-7.911-106.415-51.428l-0.617-1.77
				c-0.266-0.765,0.032-1.323,0.33-1.656C110.701,275.954,111.222,275.595,112.011,275.772z"/>
			<path d="M297.049,105.009c-14.638,0-26.547,11.909-26.547,26.547c0,4.143,3.358,7.5,7.5,7.5c4.142,0,7.5-3.357,7.5-7.5
				c0-6.367,5.18-11.547,11.547-11.547s11.547,5.18,11.547,11.547c0,4.143,3.358,7.5,7.5,7.5c4.142,0,7.5-3.357,7.5-7.5
				C323.597,116.918,311.688,105.009,297.049,105.009z"/>
		</g>
	</g>
</g>
<g>
</g>
<g>
</g>
<g>
</g>
<g>
</g>
<g>
</g>
<g>
</g>
<g>
</g>
<g>
</g>
<g>
</g>
<g>
</g>
<g>
</g>
<g>
</g>
<g>
</g>
<g>
</g>
<g>
</g>
</svg>
