<?xml version="1.0" encoding="iso-8859-1"?>
<!-- Generator: Adobe Illustrator 19.0.0, SVG Export Plug-In . SVG Version: 6.00 Build 0)  -->
<svg version="1.1" id="Capa_1" xmlns="http://www.w3.org/2000/svg" xmlns:xlink="http://www.w3.org/1999/xlink" x="0px" y="0px"
	 viewBox="0 0 512 512" style="enable-background:new 0 0 512 512;" xml:space="preserve">
<path style="fill:#FFB655;" d="M301.705,432.18h-27.297v-33.9h-41.67v55.271c0,11.211,9.088,20.299,20.299,20.299h48.667
	c11.507,0,20.835-9.328,20.835-20.835C322.54,441.508,313.212,432.18,301.705,432.18z"/>
<path style="opacity:0.1;enable-background:new    ;" d="M301.705,432.18h-27.297v-33.9h-41.67v55.271
	c0,11.211,9.088,20.299,20.299,20.299h48.667c11.507,0,20.835-9.328,20.835-20.835C322.54,441.508,313.212,432.18,301.705,432.18z"
	/>
<path style="fill:#FBDD56;" d="M306.755,38.153c-67.437,0.233-121.587,55.905-121.587,123.342l0,0
	c0,21.434-17.375,38.809-38.809,38.809H99.238c-24.171,0-47.708-7.728-67.175-22.055l0,0C21.88,170.754,7.5,178.025,7.5,190.669
	v52.814c0,85.492,69.305,154.797,154.796,154.797h112.112c85.492,0,154.796-69.305,154.796-154.797v-83.312
	C429.205,92.638,374.342,37.919,306.755,38.153z"/>
<path style="opacity:0.05;enable-background:new    ;" d="M154.267,199.495c-2.553,0.529-5.198,0.809-7.908,0.809H99.237
	c-24.17,0-47.708-7.728-67.174-22.055l0,0C21.88,170.754,7.5,178.025,7.5,190.669v52.814c0,85.492,69.305,154.796,154.796,154.796
	h106.018C147.212,372.899,123.376,246.84,154.267,199.495z"/>
<path style="fill:#FFB655;" d="M504.5,182.754c0,21.267-39.152,38.507-87.449,38.507s-87.449-9.989-87.449-38.507
	s39.152-38.507,87.449-38.507S504.5,161.488,504.5,182.754z"/>
<path style="opacity:0.1;enable-background:new    ;" d="M346.129,157.083c-10.396,6.011-16.527,14.39-16.527,25.672
	c0,28.518,39.152,38.507,87.449,38.507c35.624,0,66.27-9.381,79.901-22.838C394.79,224.687,342.348,179.555,346.129,157.083z"/>
<ellipse style="fill:#FFA6BB;" cx="278" cy="154.4" rx="27.1" ry="21.584"/>
<g>
	<path style="fill:#FFB655;" d="M219.572,338.225L219.572,338.225c-47.499,16.546-99.418-8.546-115.965-56.044l-0.616-1.769
		c-2.364-6.786,3.645-13.529,10.658-11.959l0,0c8.961,2.006,18.304,1.468,26.975-1.552l48.247-16.807
		c24.337-8.478,50.939,4.378,59.417,28.715l0,0C256.766,303.145,243.909,329.747,219.572,338.225z"/>
	<path style="fill:#FFB655;" d="M231.263,432.18h-27.296v-33.9h-41.67v55.271c0,11.211,9.088,20.299,20.299,20.299h48.667
		c11.507,0,20.835-9.328,20.835-20.835C252.098,441.508,242.77,432.18,231.263,432.18z"/>
</g>
<path style="opacity:0.1;enable-background:new    ;" d="M144.436,265.572l-3.812,1.328c-8.672,3.021-18.015,3.558-26.975,1.552
	c-7.012-1.57-13.022,5.173-10.658,11.959l0.616,1.769c15.119,43.402,59.772,68.088,103.6,59.402
	C142.615,338.28,138.214,278.76,144.436,265.572z"/>
<path d="M297.049,105.009c-14.638,0-26.547,11.909-26.547,26.547c0,4.143,3.358,7.5,7.5,7.5s7.5-3.357,7.5-7.5
	c0-6.367,5.18-11.547,11.547-11.547s11.547,5.18,11.547,11.547c0,4.143,3.358,7.5,7.5,7.5s7.5-3.357,7.5-7.5
	C323.597,116.918,311.688,105.009,297.049,105.009z M112.011,275.772c5.14,1.15,10.411,1.585,15.666,1.276
	c4.135-0.238,7.294-3.784,7.056-7.919s-3.781-7.288-7.919-7.056c-3.867,0.22-7.745-0.094-11.525-0.939
	c-5.902-1.322-12.062,0.661-16.082,5.174c-4.022,4.513-5.285,10.862-3.297,16.57l0.617,1.77
	c14.156,40.636,52.387,66.156,93.174,66.152c10.732-0.001,21.648-1.768,32.341-5.493c13.662-4.76,24.653-14.555,30.949-27.58
	c6.295-13.026,7.141-27.724,2.382-41.386c-9.825-28.203-40.764-43.154-68.966-33.332l-26.574,9.258
	c-3.912,1.363-5.978,5.639-4.615,9.551c1.363,3.912,5.641,5.981,9.55,4.614l26.574-9.257c20.392-7.103,42.763,3.708,49.867,24.1
	c3.441,9.879,2.83,20.507-1.722,29.925c-4.552,9.419-12.499,16.501-22.378,19.941c-43.518,15.162-91.255-7.911-106.415-51.428
	l-0.617-1.77c-0.266-0.765,0.032-1.323,0.33-1.656C110.701,275.954,111.222,275.596,112.011,275.772z M481.909,148.661
	c-13.157-5.794-29.492-9.622-47.183-11.156C423.898,76.099,370.168,30.652,307.183,30.652c-0.147,0-0.306,0.001-0.454,0.001
	c-71.165,0.245-129.061,58.94-129.061,130.842c0,17.264-14.045,31.31-31.309,31.31H99.238c-22.73,0-44.421-7.122-62.729-20.596
	c-7.002-5.153-16.171-5.919-23.93-1.995C4.82,174.137,0,181.975,0,190.669v52.814c0,86.976,68.774,158.183,154.796,162.116v47.951
	c0,15.328,12.471,27.799,27.799,27.799h48.667c3.889,0,7.597-0.789,10.974-2.213c3.41,1.447,7.074,2.213,10.801,2.213h48.667
	c15.624,0,28.335-12.711,28.335-28.335s-12.711-28.335-28.335-28.335h-19.796v-19.074c33.604-1.506,65.254-13.13,91.95-33.857
	c3.271-2.54,3.865-7.252,1.324-10.523c-2.539-3.272-7.25-3.865-10.523-1.324c-26.018,20.2-57.226,30.878-90.25,30.878H162.296
	C81.077,390.779,15,324.702,15,243.482v-52.814c0-3.05,1.625-5.692,4.347-7.069c2.721-1.376,5.813-1.119,8.27,0.689
	c20.903,15.384,45.668,23.516,71.621,23.516h47.122c25.535,0,46.309-20.774,46.309-46.31c0-63.658,51.191-115.625,114.113-115.842
	c0.134-0.001,0.268-0.001,0.401-0.001c54.538,0,101.229,38.539,112.126,91.119c-0.753-0.008-1.502-0.024-2.257-0.024
	c-78.476,0-94.949,25.02-94.949,46.008s16.473,46.007,94.949,46.007c1.557,0,3.109-0.018,4.654-0.053v14.774
	c0,32.31-10.263,62.976-29.678,88.683c-2.497,3.306-1.841,8.009,1.465,10.505c1.353,1.023,2.94,1.516,4.514,1.516
	c2.271,0,4.516-1.027,5.991-2.979c21.398-28.332,32.708-62.124,32.708-97.724v-15.671c16.926-1.642,32.54-5.388,45.204-10.965
	c19.403-8.545,30.09-20.653,30.09-34.093S501.313,157.206,481.909,148.661z M240.239,405.779h26.67v26.4c0,4.143,3.358,7.5,7.5,7.5
	h27.296c7.353,0,13.335,5.982,13.335,13.335s-5.982,13.335-13.335,13.335h-45.45c2.131-3.977,3.343-8.516,3.343-13.335
	c0-12.487-8.123-23.105-19.359-26.869L240.239,405.779L240.239,405.779z M211.466,405.779h13.772v18.9h-13.772V405.779z
	 M169.796,405.779h26.67v26.4c0,4.143,3.358,7.5,7.5,7.5h27.296c0.237,0,0.469,0.023,0.704,0.036
	c0.218,0.022,0.439,0.031,0.662,0.034c6.714,0.686,11.969,6.374,11.969,13.265c0,7.353-5.982,13.335-13.335,13.335h-48.667
	c-7.058,0-12.799-5.741-12.799-12.799V405.779z M475.864,203.118c-15.586,6.863-36.472,10.643-58.813,10.643
	c-24.928,0-45.382-2.788-59.153-8.063c-20.796-7.966-20.796-19.239-20.796-22.943c0-3.705,0-14.979,20.796-22.944
	c13.77-5.275,34.225-8.064,59.152-8.064c22.341,0,43.227,3.779,58.813,10.643c13.234,5.828,21.136,13.44,21.136,20.365
	C497,189.678,489.099,197.292,475.864,203.118z"/>
<g>
</g>
<g>
</g>
<g>
</g>
<g>
</g>
<g>
</g>
<g>
</g>
<g>
</g>
<g>
</g>
<g>
</g>
<g>
</g>
<g>
</g>
<g>
</g>
<g>
</g>
<g>
</g>
<g>
</g>
</svg>
